<?xml version="1.0" encoding="utf-8"?>
<!-- Svg Vector Icons : http://www.onlinewebfonts.com/icon -->
<!DOCTYPE svg PUBLIC "-//W3C//DTD SVG 1.1//EN" "http://www.w3.org/Graphics/SVG/1.1/DTD/svg11.dtd">
<svg version="1.1" xmlns="http://www.w3.org/2000/svg" xmlns:xlink="http://www.w3.org/1999/xlink" x="0px" y="0px" viewBox="0 0 256 256" enable-background="new 0 0 256 256" xml:space="preserve">
<metadata> Svg Vector Icons : http://www.onlinewebfonts.com/icon </metadata>
<g><g><path fill="#000000" d="M64.8,166.9l-51.5,51.5c-6.9,6.9-2,12.9,5,19.8c8.9,8.9,13.9,10.9,19.8,5l51.5-51.5L64.8,166.9z"/><path fill="#000000" d="M238.2,18.3c-6.9-6.9-13.9-10.9-16.8-7.9L75.7,156l24.8,24.8l28.7-28.7c-4-1-7.9-3-9.9-5c-5-5-5-12.9,0-17.8c5-5,12.9-5,17.8,0c2,2,4,5.9,5,9.9l13.9-13.9c-4-1-7.9-3-9.9-5c-5-5-5-12.9,0-17.8c5-5,12.9-5,17.8,0c2,2,4,5.9,5,9.9l13.9-13.9c-4-1-7.9-3-9.9-5c-5-5-5-12.9,0-17.8c5-5,12.9-5,17.8,0c2,2,4,5.9,5,9.9l13.9-13.9c-4-1-7.9-3-9.9-5c-5-5-5-12.9,0-17.8c5-5,12.9-5,17.8,0c2,2,4,5.9,5,9.9l20.8-20.7C249,32.2,245.1,25.3,238.2,18.3z"/><path fill="#000000" stroke="#070001" stroke-linecap="round" stroke-linejoin="round" stroke-miterlimit="10" d="M138.1 167.9L237.2 68.9"/><path fill="#000000" d="M142.1,138.2c4,4,9.9,15.8,5.9,19.8c-4,4-15.8-3-19.8-5.9L142.1,138.2z"/><path fill="#000000" d="M169.8,111.5c4,4,9.9,15.8,5.9,19.8c-3.9,4-15.8-3-19.8-5.9L169.8,111.5z"/><path fill="#000000" d="M197.5,83.7c4,3.9,9.9,15.8,5.9,19.8c-4,3.9-15.8-3-19.8-5.9L197.5,83.7z"/><path fill="#000000" d="M224.3,56c4,3.9,9.9,15.8,5.9,19.8c-4,4-15.8-3-19.8-5.9L224.3,56z"/></g></g>
</svg>